<mxfile host="www.draw.io" modified="2019-11-18T08:53:21.744Z" agent="Mozilla/5.0 (Macintosh; Intel Mac OS X 10_14_6) AppleWebKit/605.1.15 (KHTML, like Gecko) Version/13.0.2 Safari/605.1.15" etag="seIK3TnBcfFbck-oM3-x" version="12.2.6" type="github" pages="1">
  <diagram id="XpZo0hVpMd-6xpYEEkTo" name="Page-1">
    <mxGraphModel dx="932" dy="569" grid="1" gridSize="10" guides="1" tooltips="1" connect="1" arrows="1" fold="1" page="1" pageScale="1" pageWidth="3300" pageHeight="4681" math="0" shadow="0">
      <root>
        <mxCell id="0"/>
        <mxCell id="1" parent="0"/>
        <mxCell id="LFdx-RBHR0Ke_Tq2nF07-43" value="" style="rounded=0;whiteSpace=wrap;html=1;fontSize=18;fillColor=#f5f5f5;strokeColor=#666666;glass=0;shadow=0;comic=0;arcSize=12;fillOpacity=50;fontColor=#333333;" parent="1" vertex="1">
          <mxGeometry x="285" y="347.5" width="710" height="302" as="geometry"/>
        </mxCell>
        <mxCell id="LFdx-RBHR0Ke_Tq2nF07-58" value="&lt;br&gt;&lt;br&gt;&lt;br&gt;&lt;br&gt;区块链底层服务" style="rounded=0;whiteSpace=wrap;html=1;shadow=0;glass=0;comic=0;fontSize=18;fillColor=#b0e3e6;strokeColor=#0e8088;" parent="1" vertex="1">
          <mxGeometry x="694" y="527" width="285" height="109" as="geometry"/>
        </mxCell>
        <mxCell id="LFdx-RBHR0Ke_Tq2nF07-44" value="&lt;br&gt;&lt;br&gt;&lt;br&gt;&lt;br&gt;&lt;br&gt;区块链网络管理" style="rounded=0;whiteSpace=wrap;html=1;shadow=0;glass=0;comic=0;fontSize=18;fillColor=#b0e3e6;strokeColor=#0e8088;" parent="1" vertex="1">
          <mxGeometry x="301" y="364" width="380" height="145" as="geometry"/>
        </mxCell>
        <mxCell id="LFdx-RBHR0Ke_Tq2nF07-45" value="网络管理" style="rounded=1;whiteSpace=wrap;html=1;shadow=0;glass=0;comic=0;fontSize=18;" parent="1" vertex="1">
          <mxGeometry x="311" y="374" width="103" height="27" as="geometry"/>
        </mxCell>
        <mxCell id="LFdx-RBHR0Ke_Tq2nF07-46" value="通道管理" style="rounded=1;whiteSpace=wrap;html=1;shadow=0;glass=0;comic=0;fontSize=18;" parent="1" vertex="1">
          <mxGeometry x="424" y="374" width="103" height="27" as="geometry"/>
        </mxCell>
        <mxCell id="LFdx-RBHR0Ke_Tq2nF07-47" value="合约管理" style="rounded=1;whiteSpace=wrap;html=1;shadow=0;glass=0;comic=0;fontSize=18;" parent="1" vertex="1">
          <mxGeometry x="310.5" y="410.5" width="103" height="27" as="geometry"/>
        </mxCell>
        <mxCell id="LFdx-RBHR0Ke_Tq2nF07-48" value="合约市场" style="rounded=1;whiteSpace=wrap;html=1;shadow=0;glass=0;comic=0;fontSize=18;" parent="1" vertex="1">
          <mxGeometry x="424" y="410.5" width="103" height="27" as="geometry"/>
        </mxCell>
        <mxCell id="LFdx-RBHR0Ke_Tq2nF07-49" value="联盟动态管理" style="rounded=1;whiteSpace=wrap;html=1;shadow=0;glass=0;comic=0;fontSize=18;" parent="1" vertex="1">
          <mxGeometry x="545" y="374" width="126" height="27" as="geometry"/>
        </mxCell>
        <mxCell id="LFdx-RBHR0Ke_Tq2nF07-50" value="事件管理" style="rounded=1;whiteSpace=wrap;html=1;shadow=0;glass=0;comic=0;fontSize=18;" parent="1" vertex="1">
          <mxGeometry x="544.5" y="411" width="126" height="27" as="geometry"/>
        </mxCell>
        <mxCell id="LFdx-RBHR0Ke_Tq2nF07-51" value="&lt;br&gt;&lt;br&gt;&lt;br&gt;&lt;br&gt;&lt;br&gt;平台管理" style="rounded=0;whiteSpace=wrap;html=1;shadow=0;glass=0;comic=0;fontSize=18;fillColor=#b0e3e6;strokeColor=#0e8088;" parent="1" vertex="1">
          <mxGeometry x="695" y="364" width="285" height="145" as="geometry"/>
        </mxCell>
        <mxCell id="LFdx-RBHR0Ke_Tq2nF07-52" value="组织成员管理" style="rounded=1;whiteSpace=wrap;html=1;shadow=0;glass=0;comic=0;fontSize=18;" parent="1" vertex="1">
          <mxGeometry x="544.5" y="448" width="126" height="27" as="geometry"/>
        </mxCell>
        <mxCell id="LFdx-RBHR0Ke_Tq2nF07-53" value="计费管理" style="rounded=1;whiteSpace=wrap;html=1;shadow=0;glass=0;comic=0;fontSize=18;" parent="1" vertex="1">
          <mxGeometry x="705.5" y="411" width="126" height="27" as="geometry"/>
        </mxCell>
        <mxCell id="LFdx-RBHR0Ke_Tq2nF07-54" value="告警管理" style="rounded=1;whiteSpace=wrap;html=1;shadow=0;glass=0;comic=0;fontSize=18;" parent="1" vertex="1">
          <mxGeometry x="842" y="374" width="126" height="27" as="geometry"/>
        </mxCell>
        <mxCell id="LFdx-RBHR0Ke_Tq2nF07-55" value="用户日志" style="rounded=1;whiteSpace=wrap;html=1;shadow=0;glass=0;comic=0;fontSize=18;" parent="1" vertex="1">
          <mxGeometry x="842" y="411" width="126" height="27" as="geometry"/>
        </mxCell>
        <mxCell id="LFdx-RBHR0Ke_Tq2nF07-56" value="系统监控" style="rounded=1;whiteSpace=wrap;html=1;shadow=0;glass=0;comic=0;fontSize=18;" parent="1" vertex="1">
          <mxGeometry x="705.5" y="448" width="126" height="27" as="geometry"/>
        </mxCell>
        <mxCell id="LFdx-RBHR0Ke_Tq2nF07-57" value="统计报表" style="rounded=1;whiteSpace=wrap;html=1;shadow=0;glass=0;comic=0;fontSize=18;" parent="1" vertex="1">
          <mxGeometry x="842" y="448" width="126" height="27" as="geometry"/>
        </mxCell>
        <mxCell id="LFdx-RBHR0Ke_Tq2nF07-59" value="账本" style="rounded=1;whiteSpace=wrap;html=1;shadow=0;glass=0;comic=0;fontSize=18;fillColor=#FFFFFF;strokeColor=#000000;" parent="1" vertex="1">
          <mxGeometry x="704" y="535" width="121" height="27" as="geometry"/>
        </mxCell>
        <mxCell id="LFdx-RBHR0Ke_Tq2nF07-60" value="节点服务" style="rounded=1;whiteSpace=wrap;html=1;shadow=0;glass=0;comic=0;fontSize=18;fillColor=#FFFFFF;strokeColor=#000000;" parent="1" vertex="1">
          <mxGeometry x="842" y="535" width="126" height="27" as="geometry"/>
        </mxCell>
        <mxCell id="LFdx-RBHR0Ke_Tq2nF07-61" value="智能合约" style="rounded=1;whiteSpace=wrap;html=1;shadow=0;glass=0;comic=0;fontSize=18;fillColor=#FFFFFF;strokeColor=#000000;" parent="1" vertex="1">
          <mxGeometry x="704" y="572" width="121" height="27" as="geometry"/>
        </mxCell>
        <mxCell id="LFdx-RBHR0Ke_Tq2nF07-62" value="&lt;br&gt;&lt;br&gt;&lt;br&gt;&lt;br&gt;基础资源管理&lt;br&gt;" style="rounded=0;whiteSpace=wrap;html=1;shadow=0;glass=0;comic=0;fontSize=18;fillColor=#b0e3e6;strokeColor=#0e8088;" parent="1" vertex="1">
          <mxGeometry x="301" y="527" width="380" height="110" as="geometry"/>
        </mxCell>
        <mxCell id="LFdx-RBHR0Ke_Tq2nF07-63" value="共识管理" style="rounded=1;whiteSpace=wrap;html=1;shadow=0;glass=0;comic=0;fontSize=18;" parent="1" vertex="1">
          <mxGeometry x="311" y="447.5" width="103" height="27" as="geometry"/>
        </mxCell>
        <mxCell id="LFdx-RBHR0Ke_Tq2nF07-64" value="安全/证书" style="rounded=1;whiteSpace=wrap;html=1;shadow=0;glass=0;comic=0;fontSize=18;" parent="1" vertex="1">
          <mxGeometry x="424" y="447.5" width="103" height="27" as="geometry"/>
        </mxCell>
        <mxCell id="LFdx-RBHR0Ke_Tq2nF07-65" value="权限管理" style="rounded=1;whiteSpace=wrap;html=1;shadow=0;glass=0;comic=0;fontSize=18;" parent="1" vertex="1">
          <mxGeometry x="705.5" y="374" width="126" height="27" as="geometry"/>
        </mxCell>
        <mxCell id="LFdx-RBHR0Ke_Tq2nF07-66" value="主机接入" style="rounded=1;whiteSpace=wrap;html=1;shadow=0;glass=0;comic=0;fontSize=18;" parent="1" vertex="1">
          <mxGeometry x="311" y="545" width="112" height="27" as="geometry"/>
        </mxCell>
        <mxCell id="LFdx-RBHR0Ke_Tq2nF07-67" value="K8S" style="rounded=1;whiteSpace=wrap;html=1;shadow=0;glass=0;comic=0;fontSize=18;" parent="1" vertex="1">
          <mxGeometry x="447" y="562" width="78" height="27" as="geometry"/>
        </mxCell>
        <mxCell id="LFdx-RBHR0Ke_Tq2nF07-68" value="网络资源" style="rounded=1;whiteSpace=wrap;html=1;shadow=0;glass=0;comic=0;fontSize=18;" parent="1" vertex="1">
          <mxGeometry x="551" y="545" width="103" height="27" as="geometry"/>
        </mxCell>
        <mxCell id="LFdx-RBHR0Ke_Tq2nF07-69" value="" style="rounded=0;whiteSpace=wrap;html=1;strokeColor=#666666;fillColor=#F5F5F5;" parent="1" vertex="1">
          <mxGeometry x="285" y="705" width="710" height="127" as="geometry"/>
        </mxCell>
        <mxCell id="LFdx-RBHR0Ke_Tq2nF07-70" value="" style="rounded=0;whiteSpace=wrap;html=1;strokeColor=#666666;fillColor=#F5F5F5;direction=south;" parent="1" vertex="1">
          <mxGeometry x="1063" y="191.5" width="127" height="640" as="geometry"/>
        </mxCell>
        <mxCell id="LFdx-RBHR0Ke_Tq2nF07-71" value="&lt;font style=&quot;font-size: 28px&quot;&gt;区块链服务平台可视化操作界面&lt;/font&gt;" style="rounded=0;whiteSpace=wrap;html=1;strokeColor=#666666;fillColor=#F5F5F5;" parent="1" vertex="1">
          <mxGeometry x="285" y="190" width="710" height="127" as="geometry"/>
        </mxCell>
        <mxCell id="LFdx-RBHR0Ke_Tq2nF07-72" value="" style="strokeWidth=1;html=1;shape=mxgraph.flowchart.database;whiteSpace=wrap;rounded=0;fillColor=#dae8fc;fontSize=20;strokeColor=#6c8ebf;" parent="1" vertex="1">
          <mxGeometry x="335" y="740.5" width="100" height="56" as="geometry"/>
        </mxCell>
        <mxCell id="LFdx-RBHR0Ke_Tq2nF07-73" value="区块链网络&lt;br&gt;信息" style="text;html=1;resizable=0;points=[];autosize=1;align=center;verticalAlign=top;spacingTop=-4;fontSize=14;" parent="1" vertex="1">
          <mxGeometry x="348.5" y="759.5" width="80" height="34" as="geometry"/>
        </mxCell>
        <mxCell id="LFdx-RBHR0Ke_Tq2nF07-74" value="" style="strokeWidth=1;html=1;shape=mxgraph.flowchart.database;whiteSpace=wrap;rounded=0;fillColor=#dae8fc;fontSize=20;strokeColor=#6c8ebf;" parent="1" vertex="1">
          <mxGeometry x="498" y="740.5" width="100" height="56" as="geometry"/>
        </mxCell>
        <mxCell id="LFdx-RBHR0Ke_Tq2nF07-75" value="平台管理&lt;br&gt;信息" style="text;html=1;resizable=0;points=[];autosize=1;align=center;verticalAlign=top;spacingTop=-4;fontSize=14;" parent="1" vertex="1">
          <mxGeometry x="511.5" y="759.5" width="66" height="34" as="geometry"/>
        </mxCell>
        <mxCell id="LFdx-RBHR0Ke_Tq2nF07-76" value="" style="strokeWidth=1;html=1;shape=mxgraph.flowchart.database;whiteSpace=wrap;rounded=0;fillColor=#dae8fc;fontSize=20;strokeColor=#6c8ebf;" parent="1" vertex="1">
          <mxGeometry x="668.5" y="740.5" width="100" height="56" as="geometry"/>
        </mxCell>
        <mxCell id="LFdx-RBHR0Ke_Tq2nF07-77" value="监控信息" style="text;html=1;resizable=0;points=[];autosize=1;align=center;verticalAlign=top;spacingTop=-4;fontSize=14;" parent="1" vertex="1">
          <mxGeometry x="687" y="764.5" width="66" height="17" as="geometry"/>
        </mxCell>
        <mxCell id="LFdx-RBHR0Ke_Tq2nF07-78" value="" style="strokeWidth=1;html=1;shape=mxgraph.flowchart.database;whiteSpace=wrap;rounded=0;fillColor=#dae8fc;fontSize=20;strokeColor=#6c8ebf;" parent="1" vertex="1">
          <mxGeometry x="847" y="740.5" width="100" height="56" as="geometry"/>
        </mxCell>
        <mxCell id="LFdx-RBHR0Ke_Tq2nF07-79" value="日志信息" style="text;html=1;resizable=0;points=[];autosize=1;align=center;verticalAlign=top;spacingTop=-4;fontSize=14;" parent="1" vertex="1">
          <mxGeometry x="865.5" y="765.5" width="66" height="17" as="geometry"/>
        </mxCell>
        <mxCell id="LFdx-RBHR0Ke_Tq2nF07-80" value="展示层" style="rounded=0;whiteSpace=wrap;html=1;strokeWidth=1;fontSize=18;align=center;strokeColor=none;" parent="1" vertex="1">
          <mxGeometry x="240" y="191" width="32" height="127" as="geometry"/>
        </mxCell>
        <mxCell id="LFdx-RBHR0Ke_Tq2nF07-81" value="业务处理层" style="rounded=0;whiteSpace=wrap;html=1;strokeWidth=1;fontSize=18;align=center;strokeColor=none;" parent="1" vertex="1">
          <mxGeometry x="240.5" y="347.5" width="32" height="320" as="geometry"/>
        </mxCell>
        <mxCell id="LFdx-RBHR0Ke_Tq2nF07-82" value="数据存储层" style="rounded=0;whiteSpace=wrap;html=1;strokeWidth=1;fontSize=18;align=center;strokeColor=none;" parent="1" vertex="1">
          <mxGeometry x="240.5" y="705" width="32" height="127" as="geometry"/>
        </mxCell>
        <mxCell id="LFdx-RBHR0Ke_Tq2nF07-83" value="接口层" style="rounded=0;whiteSpace=wrap;html=1;strokeWidth=1;fontSize=18;align=center;strokeColor=none;" parent="1" vertex="1">
          <mxGeometry x="1026" y="397.5" width="32" height="127" as="geometry"/>
        </mxCell>
        <mxCell id="LFdx-RBHR0Ke_Tq2nF07-84" value="" style="shape=flexArrow;endArrow=classic;html=1;strokeColor=#007FFF;fillColor=#99CCFF;fontSize=18;width=20;" parent="1" source="LFdx-RBHR0Ke_Tq2nF07-71" edge="1">
          <mxGeometry width="50" height="50" relative="1" as="geometry">
            <mxPoint x="995" y="303.5" as="sourcePoint"/>
            <mxPoint x="1065.7106781186549" y="253.5" as="targetPoint"/>
          </mxGeometry>
        </mxCell>
        <mxCell id="LFdx-RBHR0Ke_Tq2nF07-85" value="" style="rounded=0;whiteSpace=wrap;html=1;strokeColor=#d79b00;strokeWidth=1;fillColor=#ffe6cc;fontSize=18;align=center;" parent="1" vertex="1">
          <mxGeometry x="1071" y="326.5" width="113" height="274" as="geometry"/>
        </mxCell>
        <mxCell id="LFdx-RBHR0Ke_Tq2nF07-87" value="REST" style="rounded=0;whiteSpace=wrap;html=1;strokeColor=#d6b656;strokeWidth=1;fillColor=#fff2cc;fontSize=18;align=center;" parent="1" vertex="1">
          <mxGeometry x="1088.7851851851851" y="341.5" width="77.84444444444445" height="44" as="geometry"/>
        </mxCell>
        <mxCell id="LFdx-RBHR0Ke_Tq2nF07-88" value="gRPC" style="rounded=0;whiteSpace=wrap;html=1;strokeColor=#d6b656;strokeWidth=1;fillColor=#fff2cc;fontSize=18;align=center;" parent="1" vertex="1">
          <mxGeometry x="1088.7851851851851" y="439.5" width="77.84444444444445" height="44" as="geometry"/>
        </mxCell>
        <mxCell id="LFdx-RBHR0Ke_Tq2nF07-89" value="MQ" style="rounded=0;whiteSpace=wrap;html=1;strokeColor=#d6b656;strokeWidth=1;fillColor=#fff2cc;fontSize=18;align=center;" parent="1" vertex="1">
          <mxGeometry x="1088.7851851851851" y="537.5" width="77.84444444444445" height="44" as="geometry"/>
        </mxCell>
        <mxCell id="LFdx-RBHR0Ke_Tq2nF07-90" value="共识机制" style="rounded=1;whiteSpace=wrap;html=1;shadow=0;glass=0;comic=0;fontSize=18;fillColor=#FFFFFF;strokeColor=#000000;" parent="1" vertex="1">
          <mxGeometry x="842" y="568" width="126" height="27" as="geometry"/>
        </mxCell>
        <mxCell id="LFdx-RBHR0Ke_Tq2nF07-91" value="" style="shape=flexArrow;endArrow=classic;startArrow=classic;html=1;exitX=1;exitY=0.5;exitDx=0;exitDy=0;entryX=0.895;entryY=1;entryDx=0;entryDy=0;entryPerimeter=0;width=19;fillColor=#99CCFF;strokeColor=#007FFF;" parent="1" source="LFdx-RBHR0Ke_Tq2nF07-69" target="LFdx-RBHR0Ke_Tq2nF07-70" edge="1">
          <mxGeometry width="50" height="50" relative="1" as="geometry">
            <mxPoint x="1005" y="786.5" as="sourcePoint"/>
            <mxPoint x="1055" y="736.5" as="targetPoint"/>
          </mxGeometry>
        </mxCell>
        <mxCell id="LFdx-RBHR0Ke_Tq2nF07-92" value="" style="shape=flexArrow;endArrow=classic;html=1;strokeColor=#007FFF;fillColor=#99CCFF;fontSize=18;width=20;" parent="1" edge="1">
          <mxGeometry width="50" height="50" relative="1" as="geometry">
            <mxPoint x="1066" y="581.5" as="sourcePoint"/>
            <mxPoint x="995" y="581.5" as="targetPoint"/>
          </mxGeometry>
        </mxCell>
      </root>
    </mxGraphModel>
  </diagram>
</mxfile>
